<svg width="22" height="13" viewBox="0 0 22 13" fill="none" xmlns="http://www.w3.org/2000/svg">
<path d="M15.2808 0.190058C15.4774 -0.0633528 15.8705 -0.0633528 16.1161 0.190058L21.8157 6.0692C22.0614 6.32261 22.0614 6.67739 21.8157 6.9308L16.1161 12.8099C15.8705 13.0634 15.4774 13.0634 15.2808 12.8099L14.8878 12.4552C14.6912 12.2018 14.6912 11.847 14.8878 11.5936L19.0151 7.33626H0.589615C0.245673 7.33626 0 7.08285 0 6.72807V6.22125C0 5.91715 0.245673 5.61306 0.589615 5.61306H19.0151L14.8878 1.40643C14.6912 1.15302 14.6912 0.798246 14.8878 0.544834L15.2808 0.190058Z" fill="black"/>
</svg>
