<svg width="20" height="20" viewBox="0 0 20 20" fill="none" xmlns="http://www.w3.org/2000/svg">
<path opacity="0.4" d="M14.19 0H5.81C2.17 0 0 2.17 0 5.81V14.18C0 17.83 2.17 20 5.81 20H14.18C17.82 20 19.99 17.83 19.99 14.19V5.81C20 2.17 17.83 0 14.19 0Z" fill="#38AE01"/>
<path d="M8.57994 13.58C8.37994 13.58 8.18994 13.5 8.04994 13.36L5.21994 10.53C4.92994 10.24 4.92994 9.75998 5.21994 9.46998C5.50994 9.17998 5.98994 9.17998 6.27994 9.46998L8.57994 11.77L13.7199 6.62998C14.0099 6.33998 14.4899 6.33998 14.7799 6.62998C15.0699 6.91998 15.0699 7.39998 14.7799 7.68998L9.10994 13.36C8.96994 13.5 8.77994 13.58 8.57994 13.58Z" fill="#38AE01"/>
</svg>
